PathFileType	4	(X/Y/Z)	pose_F01_0-84.trc
DataRate	CameraRate	NumFrames	NumMarkers	Units	OrigDataRate	OrigDataStartFrame	OrigNumFrames
30	30	9	21	m	30	0	84
Frame#	Time	CHip			RHip			RKnee			RAnkle			RBigToe			RSmallToe			RHeel			LHip			LKnee			LAnkle			LBigToe			LSmallToe			LHeel			Neck			Nose			RShoulder			RElbow			RWrist			LShoulder			LElbow			LWrist			
		X1	Y1	Z1	X2	Y2	Z2	X3	Y3	Z3	X4	Y4	Z4	X5	Y5	Z5	X6	Y6	Z6	X7	Y7	Z7	X8	Y8	Z8	X9	Y9	Z9	X10	Y10	Z10	X11	Y11	Z11	X12	Y12	Z12	X13	Y13	Z13	X14	Y14	Z14	X15	Y15	Z15	X16	Y16	Z16	X17	Y17	Z17	X18	Y18	Z18	X19	Y19	Z19	X20	Y20	Z20	X21	Y21	Z21	
0	0.0	-0.24445687396346752	1.8286441872911563	-0.5910683971830567	-0.2559234080232115	1.8256359687800818	-0.518130833648435	-0.23832916481017732	1.703061985270605	-0.49388607574737636				-0.20782546371075883	1.5642272232312384	-0.5531724666003545							-0.22594750748676126	1.82305764243883	-0.6525564405030627	-0.22700822881698932	1.6883205487014818	-0.6312383674409807	-0.22657767971447026	1.5513230354433216	-0.604777541749885	-0.24747201813174421	1.5122764449783883	-0.6499760459084838	-0.23281011016047815	1.5190939108085622	-0.6693409382344983	-0.22292039048262624	1.5420427125494485	-0.592198843869148	-0.2352251103243114	1.9886137532328547	-0.6209298395449274	-0.2624065614054132	2.0492815702650913	-0.5955005894992853	-0.252566767836192	1.9862373736415286	-0.5067833463462361	-0.26164947362255814	1.9028841088380237	-0.45045562903146696	-0.29735482576059136	1.8342688419307247	-0.4795805603683977	-0.20849188596997442	1.9854720994051416	-0.7136699531889017	-0.18926657142790437	1.9023462118579262	-0.7502299037599724	-0.20415060658458623	1.8348929370731533	-0.7460038930563316
1	0.03333333333333333	-0.24176815001484056	1.8276248123438026	-0.5899694145842067	-0.2560941159707729	1.8246821252006002	-0.5181644756786595	-0.23832916481017732	1.703061985270605	-0.49388607574737636				-0.20782546371075883	1.5642272232312384	-0.5531724666003545							-0.22619565058209973	1.8249388106785251	-0.6526301209558055	-0.22730822648267512	1.6904402674025591	-0.6311111220915326	-0.22621891369855954	1.5528751694406489	-0.6033539240598924	-0.24728940876757288	1.5138415174902857	-0.6505613749526621	-0.2327040930048552	1.5209365233999106	-0.6698868944151274	-0.22494654021639063	1.541704022828267	-0.590038188415141	-0.23336889254076743	1.9886580158682843	-0.6147084716080026	-0.2570185479314846	2.047491011249372	-0.6047705017503935	-0.25255752999923825	1.9860770786015838	-0.5067497304434164	-0.26190957959994166	1.9023586605130314	-0.4505139668270467	-0.2863923531620332	1.8336548322959778	-0.4869992055730859	-0.20836716692932178	1.9883443855630605	-0.7137714559804524	-0.19275640412341977	1.9048323737934474	-0.7428711547194086	-0.20879901302788945	1.8321458519047003	-0.7411795989372952
2	0.06666666666666667	-0.2390794260662136	1.8266054373964489	-0.5888704319853567	-0.25626482391833433	1.8237282816211187	-0.518198117708884	-0.23832916481017732	1.703061985270605	-0.49388607574737636				-0.20782546371075883	1.5642272232312384	-0.5531724666003545							-0.2264437936774382	1.8268199789182202	-0.6527038014085483	-0.22760822414836093	1.6925599861036364	-0.6309838767420846	-0.2258601476826488	1.554427303437976	-0.6019303063698999	-0.24710679940340155	1.5154065900021831	-0.6511467039968404	-0.23259807584923226	1.522779135991259	-0.6704328505957565	-0.22697268995015502	1.5413653331070856	-0.587877532961134	-0.23151267475722345	1.9887022785037138	-0.6084871036710777	-0.251630534457556	2.045700452233653	-0.6140404140015017	-0.2525482921622845	1.985916783561639	-0.5067161145405967	-0.2621696855773252	1.901833212188039	-0.45057230462262643	-0.27542988056347506	1.833040822661231	-0.4944178507777741	-0.20824244788866914	1.9912166717209794	-0.7138729587720032	-0.19624623681893516	1.9073185357289686	-0.7355124056788447	-0.21344741947119267	1.8293987667362472	-0.7363553048182588
3	0.1	-0.2372716453494951	1.827519347892953	-0.5825083627960297	-0.25547141099852394	1.822512652083102	-0.5148288990537666	-0.23832916481017732	1.703061985270605	-0.49388607574737636				-0.20782546371075883	1.5642272232312384	-0.5531724666003545							-0.22586405713294028	1.826688898264766	-0.6494624870787564	-0.22589793090528373	1.690893335480206	-0.6241959827571723	-0.22550138166673805	1.5559794374353033	-0.6005066886799072	-0.24321022239351103	1.517844810947369	-0.6513532872816068	-0.2312295223631215	1.523887833990383	-0.6678650718942599	-0.22740227709835104	1.5427361771447072	-0.5864906987142207	-0.22973270375284538	1.987695124442126	-0.6021151930779766	-0.24202082735257915	2.045820259713917	-0.6282880928072045	-0.2534818362879854	1.9871637636423802	-0.5014318478487958	-0.26399592941441447	1.9003561402841305	-0.4480137768472861	-0.2732398205705227	1.8321712664235652	-0.5051775078117386	-0.2065610933106862	1.9915338393209456	-0.7076403318335068	-0.19694809246888978	1.908919182132341	-0.7270122518314227	-0.2144611565373395	1.8334059170142256	-0.7312937041612158
4	0.13333333333333333	-0.23712117479770303	1.8265260339936633	-0.5823270234720926	-0.2551460523417121	1.8226980500583314	-0.5147980155491348	-0.23832916481017732	1.703061985270605	-0.49388607574737636				-0.20782546371075883	1.5642272232312384	-0.5531724666003545							-0.22553425603004565	1.8266506739398622	-0.6495964000106621	-0.22479315607387756	1.6928998195561187	-0.6213393191852309	-0.22514261565082733	1.5575315714326303	-0.5990830709899146	-0.240502135564146	1.519136441505573	-0.654298227557674	-0.2286185518368057	1.5284472415138683	-0.6709808358447091	-0.22783186424654706	1.544107021182329	-0.5851038644673072	-0.23096927189483374	1.9864960350722973	-0.5967724749432618	-0.23298165226383255	2.0463772893652927	-0.6539231148886024	-0.2556482827132441	1.9858808221626796	-0.4990402751652311	-0.2680753661832641	1.9013960886196473	-0.44382558527951815	-0.27135889484350273	1.834028809577536	-0.5074602968579485	-0.2053136747677306	1.9889190557374716	-0.6927404182934066	-0.200326179804652	1.9074784268922655	-0.719030201622492	-0.21759728895546734	1.8342540006357888	-0.7239142449931198
5	0.16666666666666666	-0.23478628146908342	1.8218878063208177	-0.5754756288518194	-0.2508634171161251	1.8196615114676833	-0.5100333868894565	-0.23832916481017732	1.703061985270605	-0.49388607574737636				-0.20782546371075883	1.5642272232312384	-0.5531724666003545							-0.22358012745780004	1.8267198751357072	-0.6427352986774345	-0.2254098948921255	1.6938776801106616	-0.6249855986700564	-0.22478384963491657	1.5590837054299576	-0.597659453299922	-0.23055696731817388	1.5222686859926007	-0.6601959742517263	-0.22066187387789132	1.5335975418628816	-0.6748742762320813	-0.2282614513947431	1.5454778652199506	-0.5837170302203939	-0.23001241896868724	1.9863174045092555	-0.5936565563948422	-0.2240854113959703	2.0437400476980927	-0.6710622713738292	-0.2556190440609255	1.9860361305566605	-0.4989020590454814	-0.26722839202868504	1.8945871455147578	-0.44828705394900736	-0.2730159118205349	1.8263897960010338	-0.5183636588097851	-0.20365660746633002	1.9868580858514864	-0.6866944975667206	-0.19855250760680695	1.9073845627550328	-0.7125131681866994	-0.21538431508324948	1.8320287355660267	-0.6974252815315822
6	0.2	-0.23385696133371778	1.8158401630174903	-0.5716094606401542	-0.24798087054787793	1.8148604478060235	-0.499594800286404	-0.23832916481017732	1.703061985270605	-0.49388607574737636				-0.20782546371075883	1.5642272232312384	-0.5531724666003545							-0.21996522651384798	1.8198534496028047	-0.629415351120808	-0.22749661815966918	1.6889714304301036	-0.6307364049417598	-0.22442508361900584	1.5606358394272848	-0.5962358356099294	-0.22950245456761467	1.5285651306715238	-0.661270997775474	-0.2180353869592646	1.5374369782465929	-0.6728664589261985	-0.22869103854293912	1.5468487092575722	-0.5823301959734806	-0.2279417851669081	1.9841953005648116	-0.5955002572967153	-0.21634010128912354	2.043451296547178	-0.6832050734263279	-0.25359731778801553	1.9817491079979228	-0.5004260120322584	-0.2663082861858878	1.8943081295384112	-0.46214134779479227	-0.2742139214891003	1.821523099550208	-0.5034547942485192	-0.19933781224044303	1.9867580380613157	-0.691045175427962	-0.19442750106494658	1.9026474327978151	-0.6965901583399533	-0.2151564221062821	1.8264764413201846	-0.6929256826432612
7	0.23333333333333334	-0.2326205029617063	1.820483436425628	-0.5688674404551244	-0.24674710331551822	1.8191804859056204	-0.4967937729509136	-0.23832916481017732	1.703061985270605	-0.49388607574737636				-0.20782546371075883	1.5642272232312384	-0.5531724666003545							-0.2165423126843169	1.8226121529401094	-0.6288349014270397	-0.22223316553870726	1.6915096094566069	-0.6153731848892283	-0.22185913467656873	1.5609555789474974	-0.5991479901085366	-0.2297026234784545	1.5292382192776912	-0.6611716590890191	-0.217285858583387	1.5380689660590856	-0.6697469272006256	-0.22568477704369497	1.5489747400353804	-0.580627930072859	-0.22575137109527357	1.9845119109646299	-0.5976128555817276	-0.21049001844626625	2.044299801995065	-0.6924152835003201	-0.2495107407813972	1.980770387761116	-0.5043563072987938	-0.26713181414396514	1.8954007492263085	-0.45684750681605635	-0.27923181061257507	1.8220272918340066	-0.4973049878929178	-0.19412990409758085	1.9850089235113308	-0.6922027889045468	-0.19343976201798455	1.9015771936029828	-0.6933273521895927	-0.20473307700785495	1.8323630016612142	-0.67948293170657
8	0.26666666666666666	-0.23569026179702882	1.821473980442392	-0.5697848153785168	-0.25085943072881733	1.8213334251947462	-0.5012057065055237	-0.23832916481017732	1.703061985270605	-0.49388607574737636				-0.20782546371075883	1.5642272232312384	-0.5531724666003545							-0.21878622417653237	1.820794162925293	-0.626313542873578	-0.2215477827991783	1.687713101091689	-0.6113169435231424	-0.2210629414798681	1.5620550548003933	-0.5957843679281981	-0.22988128309174433	1.5330590228657093	-0.6614823032173774	-0.21710495933741644	1.5399498950107249	-0.6703458238800948	-0.2226785155444508	1.5511007708131885	-0.5789256641722375	-0.2257475867567567	1.984604942877051	-0.5976103246888065	-0.2090264891623479	2.0446115591042475	-0.6972129684265603	-0.2494105449257578	1.9834838425996892	-0.5047412538537052	-0.26871549183288934	1.8983645959788604	-0.44653552816163067	-0.28747694484209285	1.8299941699762932	-0.48067486125408976	-0.19625424983077425	1.9850424547124712	-0.6899909320522353	-0.19136300590670421	1.8994988131413095	-0.6953044672730844	-0.19882722492549285	1.82447968644379	-0.684997070689596
